{
    "accessors" : [
        {
            "bufferView" : 0,
            "componentType" : 5126,
            "count" : 3032,
            "max" : [
                6.829346179962158,
                6.742823123931885,
                0
            ],
            "min" : [
                -6.733513832092285,
                -6.820035934448242,
                -29.9872989654541
            ],
            "type" : "VEC3"
        },
        {
            "bufferView" : 1,
            "componentType" : 5126,
            "count" : 3032,
            "type" : "VEC3"
        },
        {
            "bufferView" : 2,
            "componentType" : 5126,
            "count" : 3032,
            "type" : "VEC2"
        },
        {
            "bufferView" : 3,
            "componentType" : 5123,
            "count" : 3084,
            "type" : "SCALAR"
        }
    ],
    "asset" : {
        "generator" : "Khronos Blender glTF 2.0 I/O",
        "version" : "2.0"
    },
    "bufferViews" : [
        {
            "buffer" : 0,
            "byteLength" : 36384,
            "byteOffset" : 0
        },
        {
            "buffer" : 0,
            "byteLength" : 36384,
            "byteOffset" : 36384
        },
        {
            "buffer" : 0,
            "byteLength" : 24256,
            "byteOffset" : 72768
        },
        {
            "buffer" : 0,
            "byteLength" : 6168,
            "byteOffset" : 97024
        }
    ],
    "buffers" : [
        {
            "byteLength" : 103192,
            "uri" : "bishop.bin"
        }
    ],
    "extensions" : {},
    "materials" : [
        {
            "name" : "bishop_1SG",
            "pbrMetallicRoughness" : {}
        }
    ],
    "meshes" : [
        {
            "name" : "ChessPieceBishop1",
            "primitives" : [
                {
                    "attributes" : {
                        "NORMAL" : 1,
                        "POSITION" : 0,
                        "TEXCOORD_0" : 2
                    },
                    "indices" : 3,
                    "material" : 0
                }
            ]
        }
    ],
    "nodes" : [
        {
            "mesh" : 0,
            "name" : "ChessPieceBishop1",
            "rotation" : [
                0.7071068286895752,
                0,
                0,
                0.7071067094802856
            ]
        }
    ],
    "scene" : 0,
    "scenes" : [
        {
            "name" : "Scene",
            "nodes" : [
                0
            ]
        }
    ]
}
