{
    "accessors" : [
        {
            "bufferView" : 0,
            "componentType" : 5126,
            "count" : 1776,
            "max" : [
                6.748370170593262,
                6.828227996826172,
                0
            ],
            "min" : [
                -6.748370170593262,
                -6.668507099151611,
                -26.238300323486328
            ],
            "type" : "VEC3"
        },
        {
            "bufferView" : 1,
            "componentType" : 5126,
            "count" : 1776,
            "type" : "VEC3"
        },
        {
            "bufferView" : 2,
            "componentType" : 5126,
            "count" : 1776,
            "type" : "VEC2"
        },
        {
            "bufferView" : 3,
            "componentType" : 5123,
            "count" : 1878,
            "type" : "SCALAR"
        }
    ],
    "asset" : {
        "generator" : "Khronos Blender glTF 2.0 I/O",
        "version" : "2.0"
    },
    "bufferViews" : [
        {
            "buffer" : 0,
            "byteLength" : 21312,
            "byteOffset" : 0
        },
        {
            "buffer" : 0,
            "byteLength" : 21312,
            "byteOffset" : 21312
        },
        {
            "buffer" : 0,
            "byteLength" : 14208,
            "byteOffset" : 42624
        },
        {
            "buffer" : 0,
            "byteLength" : 3756,
            "byteOffset" : 56832
        }
    ],
    "buffers" : [
        {
            "byteLength" : 60588,
            "uri" : "knight.bin"
        }
    ],
    "extensions" : {},
    "materials" : [
        {
            "name" : "knight_1SG",
            "pbrMetallicRoughness" : {
                "baseColorFactor": [ 0.03, 0.03, 0.02, 1.0 ],
                "metallicFactor": 0.01,
                "roughnessFactor": 0.25
			}
        }
    ],
    "meshes" : [
        {
            "name" : "knight",
            "primitives" : [
                {
                    "attributes" : {
                        "NORMAL" : 1,
                        "POSITION" : 0,
                        "TEXCOORD_0" : 2
                    },
                    "indices" : 3,
                    "material" : 0
                }
            ]
        }
    ],
    "nodes" : [
        {
            "mesh" : 0,
            "name" : "knight",
            "rotation" : [
                0.7071068286895752,
                0,
                0,
                0.7071067094802856
            ]
        }
    ],
    "scene" : 0,
    "scenes" : [
        {
            "name" : "Scene",
            "nodes" : [
                0
            ]
        }
    ]
}
