{
    "asset" : {
        "generator" : "Khronos Blender glTF 2.0 I/O",
        "version" : "2.0"
    },
    "scene" : 0,
    "scenes" : [
        {
            "name" : "Scene",
            "nodes" : [
                0
            ]
        }
    ],
    "nodes" : [
        {
            "mesh" : 0,
            "name" : "ChessPieces_King_White",
            "rotation" : [
                0.7071080803871155,
                0,
                0,
                0.7071055769920349
            ]
        }
    ],
    "materials" : [
        {
            "name" : "Material.002",
            "pbrMetallicRoughness" : {
                "baseColorTexture": {
                    "index" : 0,
                    "texCoord" : 0
                }
            }
        }
    ],
    "meshes" : [
        {
            "name" : "Cylinder.042",
            "primitives" : [
                {
                    "attributes" : {
                        "POSITION" : 0,
                        "NORMAL" : 1,
                        "TEXCOORD_0" : 2
                    },
                    "indices" : 3,
                    "material" : 0
                }
            ]
        }
    ],
    "textures" : [
        {
            "source" : 0
        }
    ],
    "images" : [
        {
            "mimeType" : "image/png",
            "name" : "ChessPiecesWhite_Basecol.tga",
            "uri" : "ChessPiecesWhite_Basecol.png"
        }
    ],
    "accessors" : [
        {
            "bufferView" : 0,
            "componentType" : 5126,
            "count" : 701,
            "max" : [
                0.015214362181723118,
                0.01521433424204588,
                5.348547915673407e-08
            ],
            "min" : [
                -0.015214362181723118,
                -0.015214390121400356,
                -0.0908808559179306
            ],
            "type" : "VEC3"
        },
        {
            "bufferView" : 1,
            "componentType" : 5126,
            "count" : 701,
            "type" : "VEC3"
        },
        {
            "bufferView" : 2,
            "componentType" : 5126,
            "count" : 701,
            "type" : "VEC2"
        },
        {
            "bufferView" : 3,
            "componentType" : 5123,
            "count" : 3240,
            "type" : "SCALAR"
        }
    ],
    "bufferViews" : [
        {
            "buffer" : 0,
            "byteLength" : 8412,
            "byteOffset" : 0
        },
        {
            "buffer" : 0,
            "byteLength" : 8412,
            "byteOffset" : 8412
        },
        {
            "buffer" : 0,
            "byteLength" : 5608,
            "byteOffset" : 16824
        },
        {
            "buffer" : 0,
            "byteLength" : 6480,
            "byteOffset" : 22432
        }
    ],
    "buffers" : [
        {
            "byteLength" : 28912,
            "uri" : "ChessPieces_King_White.bin"
        }
    ]
}
