{
    "asset" : {
        "generator" : "Khronos Blender glTF 2.0 I/O",
        "version" : "2.0"
    },
    "scene" : 0,
    "scenes" : [
        {
            "name" : "Scene",
            "nodes" : [
                0
            ]
        }
    ],
    "nodes" : [
        {
            "mesh" : 0,
            "name" : "ChessPieces_Pawn_White",
            "rotation" : [
                0.7071080803871155,
                0,
                0,
                0.7071055769920349
            ]
        }
    ],
    "materials" : [
        {
            "name" : "Material.002",
            "pbrMetallicRoughness" : {
                "baseColorTexture": {
                    "index" : 0,
                    "texCoord" : 0
                }
            }
        }
    ],
    "meshes" : [
        {
            "name" : "Cylinder.040",
            "primitives" : [
                {
                    "attributes" : {
                        "POSITION" : 0,
                        "NORMAL" : 1,
                        "TEXCOORD_0" : 2
                    },
                    "indices" : 3,
                    "material" : 0
                }
            ]
        }
    ],
    "textures" : [
        {
            "source" : 0
        }
    ],
    "images" : [
        {
            "mimeType" : "image/png",
            "name" : "ChessPiecesWhite_Basecol.tga",
            "uri" : "ChessPiecesWhite_Basecol.png"
        }
    ],
    "accessors" : [
        {
            "bufferView" : 0,
            "componentType" : 5126,
            "count" : 613,
            "max" : [
                0.011064990423619747,
                0.01106497086584568,
                3.889853061878057e-08
            ],
            "min" : [
                -0.011064990423619747,
                -0.011065010912716389,
                -0.04626351594924927
            ],
            "type" : "VEC3"
        },
        {
            "bufferView" : 1,
            "componentType" : 5126,
            "count" : 613,
            "type" : "VEC3"
        },
        {
            "bufferView" : 2,
            "componentType" : 5126,
            "count" : 613,
            "type" : "VEC2"
        },
        {
            "bufferView" : 3,
            "componentType" : 5123,
            "count" : 2652,
            "type" : "SCALAR"
        }
    ],
    "bufferViews" : [
        {
            "buffer" : 0,
            "byteLength" : 7356,
            "byteOffset" : 0
        },
        {
            "buffer" : 0,
            "byteLength" : 7356,
            "byteOffset" : 7356
        },
        {
            "buffer" : 0,
            "byteLength" : 4904,
            "byteOffset" : 14712
        },
        {
            "buffer" : 0,
            "byteLength" : 5304,
            "byteOffset" : 19616
        }
    ],
    "buffers" : [
        {
            "byteLength" : 24920,
            "uri" : "ChessPieces_Pawn_White.bin"
        }
    ]
}
