{
    "asset" : {
        "generator" : "Khronos Blender glTF 2.0 I/O",
        "version" : "2.0"
    },
    "scene" : 0,
    "scenes" : [
        {
            "name" : "Scene",
            "nodes" : [
                0,
                1,
                2,
                3,
                4
            ]
        }
    ],
    "nodes" : [
        {
            "mesh" : 0,
            "name" : "Chessboard_Main",
            "rotation" : [
                0.7071080803871155,
                0,
                0,
                0.7071055769920349
            ]
        },
        {
            "mesh" : 1,
            "name" : "Player1_Join",
            "rotation" : [
                0.7071080803871155,
                0,
                0,
                0.7071055769920349
            ],
            "translation" : [
                -0.2285144329071045,
                0.002729848027229309,
                0.17593055963516235
            ]
        },
        {
            "mesh" : 2,
            "name" : "Player1_Leave",
            "rotation" : [
                0.7071080803871155,
                0,
                0,
                0.7071055769920349
            ],
            "translation" : [
                -0.2285144329071045,
                0.002729848027229309,
                0.17593055963516235
            ]
        },
        {
            "mesh" : 3,
            "name" : "Player2_Join",
            "rotation" : [
                0.7071080803871155,
                0,
                0,
                0.7071055769920349
            ],
            "translation" : [
                0.2285144031047821,
                0.0027298477943986654,
                -0.17593055963516235
            ]
        },
        {
            "mesh" : 4,
            "name" : "Player2_Leave",
            "rotation" : [
                0.7071080803871155,
                0,
                0,
                0.7071055769920349
            ],
            "translation" : [
                0.2285144031047821,
                0.0027298477943986654,
                -0.17593055963516235
            ]
        }
    ],
    "materials" : [
        {
            "name" : "Chessboard_MAT",
            "pbrMetallicRoughness" : {
                "baseColorTexture": {
                    "index" : 0,
                    "texCoord" : 0
                }
            }
        }
    ],
    "meshes" : [
        {
            "name" : "Plane.473",
            "primitives" : [
                {
                    "attributes" : {
                        "POSITION" : 0,
                        "NORMAL" : 1,
                        "TEXCOORD_0" : 2,
                        "COLOR_0" : 3
                    },
                    "indices" : 4,
                    "material" : 0
                }
            ]
        },
        {
            "name" : "Plane.475",
            "primitives" : [
                {
                    "attributes" : {
                        "POSITION" : 5,
                        "NORMAL" : 6,
                        "TEXCOORD_0" : 7,
                        "COLOR_0" : 8
                    },
                    "indices" : 9,
                    "material" : 0
                }
            ]
        },
        {
            "name" : "Plane.474",
            "primitives" : [
                {
                    "attributes" : {
                        "POSITION" : 10,
                        "NORMAL" : 11,
                        "TEXCOORD_0" : 12,
                        "COLOR_0" : 13
                    },
                    "indices" : 14,
                    "material" : 0
                }
            ]
        },
        {
            "name" : "Plane.006",
            "primitives" : [
                {
                    "attributes" : {
                        "POSITION" : 15,
                        "NORMAL" : 16,
                        "TEXCOORD_0" : 17,
                        "COLOR_0" : 18
                    },
                    "indices" : 19,
                    "material" : 0
                }
            ]
        },
        {
            "name" : "Plane.476",
            "primitives" : [
                {
                    "attributes" : {
                        "POSITION" : 20,
                        "NORMAL" : 21,
                        "TEXCOORD_0" : 22,
                        "COLOR_0" : 23
                    },
                    "indices" : 24,
                    "material" : 0
                }
            ]
        }
    ],
    "textures" : [
        {
            "source" : 0
        }
    ],
    "images" : [
        {
            "mimeType" : "image/png",
            "name" : "Chessboard_Basecol.tga",
            "uri" : "Chessboard_Basecol.png"
        }
    ],
    "accessors" : [
        {
            "bufferView" : 0,
            "componentType" : 5126,
            "count" : 660,
            "max" : [
                0.28562065958976746,
                0.2292773574590683,
                0.02778180129826069
            ],
            "min" : [
                -0.28562065958976746,
                -0.22927722334861755,
                -8.178072903319844e-07
            ],
            "type" : "VEC3"
        },
        {
            "bufferView" : 1,
            "componentType" : 5126,
            "count" : 660,
            "type" : "VEC3"
        },
        {
            "bufferView" : 2,
            "componentType" : 5126,
            "count" : 660,
            "type" : "VEC2"
        },
        {
            "bufferView" : 3,
            "componentType" : 5126,
            "count" : 660,
            "type" : "VEC4"
        },
        {
            "bufferView" : 4,
            "componentType" : 5123,
            "count" : 1434,
            "type" : "SCALAR"
        },
        {
            "bufferView" : 5,
            "componentType" : 5126,
            "count" : 344,
            "max" : [
                0.02601642906665802,
                0.02601642906665802,
                0.008754267357289791
            ],
            "min" : [
                -0.026016414165496826,
                -0.02601642906665802,
                -0.008754267357289791
            ],
            "type" : "VEC3"
        },
        {
            "bufferView" : 6,
            "componentType" : 5126,
            "count" : 344,
            "type" : "VEC3"
        },
        {
            "bufferView" : 7,
            "componentType" : 5126,
            "count" : 344,
            "type" : "VEC2"
        },
        {
            "bufferView" : 8,
            "componentType" : 5126,
            "count" : 344,
            "type" : "VEC4"
        },
        {
            "bufferView" : 9,
            "componentType" : 5123,
            "count" : 474,
            "type" : "SCALAR"
        },
        {
            "bufferView" : 10,
            "componentType" : 5126,
            "count" : 149,
            "max" : [
                0.02601642906665802,
                0.026016443967819214,
                0.008754267357289791
            ],
            "min" : [
                -0.026016414165496826,
                -0.02601642906665802,
                -0.008754267357289791
            ],
            "type" : "VEC3"
        },
        {
            "bufferView" : 11,
            "componentType" : 5126,
            "count" : 149,
            "type" : "VEC3"
        },
        {
            "bufferView" : 12,
            "componentType" : 5126,
            "count" : 149,
            "type" : "VEC2"
        },
        {
            "bufferView" : 13,
            "componentType" : 5126,
            "count" : 149,
            "type" : "VEC4"
        },
        {
            "bufferView" : 14,
            "componentType" : 5123,
            "count" : 474,
            "type" : "SCALAR"
        },
        {
            "bufferView" : 15,
            "componentType" : 5126,
            "count" : 149,
            "max" : [
                0.026016443967819214,
                0.02601642906665802,
                0.008754263631999493
            ],
            "min" : [
                -0.02601642906665802,
                -0.02601642906665802,
                -0.008754263631999493
            ],
            "type" : "VEC3"
        },
        {
            "bufferView" : 16,
            "componentType" : 5126,
            "count" : 149,
            "type" : "VEC3"
        },
        {
            "bufferView" : 17,
            "componentType" : 5126,
            "count" : 149,
            "type" : "VEC2"
        },
        {
            "bufferView" : 18,
            "componentType" : 5126,
            "count" : 149,
            "type" : "VEC4"
        },
        {
            "bufferView" : 19,
            "componentType" : 5123,
            "count" : 474,
            "type" : "SCALAR"
        },
        {
            "bufferView" : 20,
            "componentType" : 5126,
            "count" : 149,
            "max" : [
                0.026016443967819214,
                0.026016458868980408,
                0.008754263631999493
            ],
            "min" : [
                -0.02601642906665802,
                -0.0260164737701416,
                -0.008754263631999493
            ],
            "type" : "VEC3"
        },
        {
            "bufferView" : 21,
            "componentType" : 5126,
            "count" : 149,
            "type" : "VEC3"
        },
        {
            "bufferView" : 22,
            "componentType" : 5126,
            "count" : 149,
            "type" : "VEC2"
        },
        {
            "bufferView" : 23,
            "componentType" : 5126,
            "count" : 149,
            "type" : "VEC4"
        },
        {
            "bufferView" : 24,
            "componentType" : 5123,
            "count" : 474,
            "type" : "SCALAR"
        }
    ],
    "bufferViews" : [
        {
            "buffer" : 0,
            "byteLength" : 7920,
            "byteOffset" : 0
        },
        {
            "buffer" : 0,
            "byteLength" : 7920,
            "byteOffset" : 7920
        },
        {
            "buffer" : 0,
            "byteLength" : 5280,
            "byteOffset" : 15840
        },
        {
            "buffer" : 0,
            "byteLength" : 10560,
            "byteOffset" : 21120
        },
        {
            "buffer" : 0,
            "byteLength" : 2868,
            "byteOffset" : 31680
        },
        {
            "buffer" : 0,
            "byteLength" : 4128,
            "byteOffset" : 34548
        },
        {
            "buffer" : 0,
            "byteLength" : 4128,
            "byteOffset" : 38676
        },
        {
            "buffer" : 0,
            "byteLength" : 2752,
            "byteOffset" : 42804
        },
        {
            "buffer" : 0,
            "byteLength" : 5504,
            "byteOffset" : 45556
        },
        {
            "buffer" : 0,
            "byteLength" : 948,
            "byteOffset" : 51060
        },
        {
            "buffer" : 0,
            "byteLength" : 1788,
            "byteOffset" : 52008
        },
        {
            "buffer" : 0,
            "byteLength" : 1788,
            "byteOffset" : 53796
        },
        {
            "buffer" : 0,
            "byteLength" : 1192,
            "byteOffset" : 55584
        },
        {
            "buffer" : 0,
            "byteLength" : 2384,
            "byteOffset" : 56776
        },
        {
            "buffer" : 0,
            "byteLength" : 948,
            "byteOffset" : 59160
        },
        {
            "buffer" : 0,
            "byteLength" : 1788,
            "byteOffset" : 60108
        },
        {
            "buffer" : 0,
            "byteLength" : 1788,
            "byteOffset" : 61896
        },
        {
            "buffer" : 0,
            "byteLength" : 1192,
            "byteOffset" : 63684
        },
        {
            "buffer" : 0,
            "byteLength" : 2384,
            "byteOffset" : 64876
        },
        {
            "buffer" : 0,
            "byteLength" : 948,
            "byteOffset" : 67260
        },
        {
            "buffer" : 0,
            "byteLength" : 1788,
            "byteOffset" : 68208
        },
        {
            "buffer" : 0,
            "byteLength" : 1788,
            "byteOffset" : 69996
        },
        {
            "buffer" : 0,
            "byteLength" : 1192,
            "byteOffset" : 71784
        },
        {
            "buffer" : 0,
            "byteLength" : 2384,
            "byteOffset" : 72976
        },
        {
            "buffer" : 0,
            "byteLength" : 948,
            "byteOffset" : 75360
        }
    ],
    "buffers" : [
        {
            "byteLength" : 76308,
            "uri" : "Chessboard.bin"
        }
    ]
}
