{
    "accessors" : [
        {
            "bufferView" : 0,
            "componentType" : 5126,
            "count" : 2168,
            "max" : [
                5.634725093841553,
                5.60968017578125,
                0
            ],
            "min" : [
                -5.634725093841553,
                -5.6597747802734375,
                -18.06859016418457
            ],
            "type" : "VEC3"
        },
        {
            "bufferView" : 1,
            "componentType" : 5126,
            "count" : 2168,
            "type" : "VEC3"
        },
        {
            "bufferView" : 2,
            "componentType" : 5126,
            "count" : 2168,
            "type" : "VEC2"
        },
        {
            "bufferView" : 3,
            "componentType" : 5123,
            "count" : 2220,
            "type" : "SCALAR"
        }
    ],
    "asset" : {
        "generator" : "Khronos Blender glTF 2.0 I/O",
        "version" : "2.0"
    },
    "bufferViews" : [
        {
            "buffer" : 0,
            "byteLength" : 26016,
            "byteOffset" : 0
        },
        {
            "buffer" : 0,
            "byteLength" : 26016,
            "byteOffset" : 26016
        },
        {
            "buffer" : 0,
            "byteLength" : 17344,
            "byteOffset" : 52032
        },
        {
            "buffer" : 0,
            "byteLength" : 4440,
            "byteOffset" : 69376
        }
    ],
    "buffers" : [
        {
            "byteLength" : 73816,
            "uri" : "pawn.bin"
        }
    ],
    "extensions" : {},
    "materials" : [
        {
            "name" : "pawn_1SG",
            "pbrMetallicRoughness" : {}
        }
    ],
    "meshes" : [
        {
            "name" : "pawn",
            "primitives" : [
                {
                    "attributes" : {
                        "NORMAL" : 1,
                        "POSITION" : 0,
                        "TEXCOORD_0" : 2
                    },
                    "indices" : 3,
                    "material" : 0
                }
            ]
        }
    ],
    "nodes" : [
        {
            "mesh" : 0,
            "name" : "pawn",
            "rotation" : [
                0.7071068286895752,
                0,
                0,
                0.7071067094802856
            ]
        }
    ],
    "scene" : 0,
    "scenes" : [
        {
            "name" : "Scene",
            "nodes" : [
                0
            ]
        }
    ]
}
