{
    "accessors" : [
        {
            "bufferView" : 0,
            "componentType" : 5126,
            "count" : 3374,
            "max" : [
                8.187689781188965,
                8.206703186035156,
                0
            ],
            "min" : [
                -8.187689781188965,
                -8.168689727783203,
                -34.77079772949219
            ],
            "type" : "VEC3"
        },
        {
            "bufferView" : 1,
            "componentType" : 5126,
            "count" : 3374,
            "type" : "VEC3"
        },
        {
            "bufferView" : 2,
            "componentType" : 5126,
            "count" : 3374,
            "type" : "VEC2"
        },
        {
            "bufferView" : 3,
            "componentType" : 5123,
            "count" : 3444,
            "type" : "SCALAR"
        }
    ],
    "asset" : {
        "generator" : "Khronos Blender glTF 2.0 I/O",
        "version" : "2.0"
    },
    "bufferViews" : [
        {
            "buffer" : 0,
            "byteLength" : 40488,
            "byteOffset" : 0
        },
        {
            "buffer" : 0,
            "byteLength" : 40488,
            "byteOffset" : 40488
        },
        {
            "buffer" : 0,
            "byteLength" : 26992,
            "byteOffset" : 80976
        },
        {
            "buffer" : 0,
            "byteLength" : 6888,
            "byteOffset" : 107968
        }
    ],
    "buffers" : [
        {
            "byteLength" : 114856,
            "uri" : "queen.bin"
        }
    ],
    "extensions" : {},
    "materials" : [
        {
            "name" : "queen_1SG",
            "pbrMetallicRoughness" : {}
        }
    ],
    "meshes" : [
        {
            "name" : "queen",
            "primitives" : [
                {
                    "attributes" : {
                        "NORMAL" : 1,
                        "POSITION" : 0,
                        "TEXCOORD_0" : 2
                    },
                    "indices" : 3,
                    "material" : 0
                }
            ]
        }
    ],
    "nodes" : [
        {
            "mesh" : 0,
            "name" : "queen",
            "rotation" : [
                0.7071068286895752,
                0,
                0,
                0.7071067094802856
            ]
        }
    ],
    "scene" : 0,
    "scenes" : [
        {
            "name" : "Scene",
            "nodes" : [
                0
            ]
        }
    ]
}
