{
    "accessors" : [
        {
            "bufferView" : 0,
            "componentType" : 5126,
            "count" : 1908,
            "max" : [
                6.748370170593262,
                6.748371124267578,
                9.899999713525176e-05
            ],
            "min" : [
                -6.748370170593262,
                -6.748371124267578,
                -20.772401809692383
            ],
            "type" : "VEC3"
        },
        {
            "bufferView" : 1,
            "componentType" : 5126,
            "count" : 1908,
            "type" : "VEC3"
        },
        {
            "bufferView" : 2,
            "componentType" : 5126,
            "count" : 1908,
            "type" : "VEC2"
        },
        {
            "bufferView" : 3,
            "componentType" : 5123,
            "count" : 1908,
            "type" : "SCALAR"
        }
    ],
    "asset" : {
        "generator" : "Khronos Blender glTF 2.0 I/O",
        "version" : "2.0"
    },
    "bufferViews" : [
        {
            "buffer" : 0,
            "byteLength" : 22896,
            "byteOffset" : 0
        },
        {
            "buffer" : 0,
            "byteLength" : 22896,
            "byteOffset" : 22896
        },
        {
            "buffer" : 0,
            "byteLength" : 15264,
            "byteOffset" : 45792
        },
        {
            "buffer" : 0,
            "byteLength" : 3816,
            "byteOffset" : 61056
        }
    ],
    "buffers" : [
        {
            "byteLength" : 64872,
            "uri" : "rook.bin"
        }
    ],
    "extensions" : {},
    "materials" : [
        {
            "name" : "rook_1SG",
            "pbrMetallicRoughness" : {}
        }
    ],
    "meshes" : [
        {
            "name" : "ChessPieceRook1",
            "primitives" : [
                {
                    "attributes" : {
                        "NORMAL" : 1,
                        "POSITION" : 0,
                        "TEXCOORD_0" : 2
                    },
                    "indices" : 3,
                    "material" : 0
                }
            ]
        }
    ],
    "nodes" : [
        {
            "mesh" : 0,
            "name" : "ChessPieceRook1",
            "rotation" : [
                0.7071068286895752,
                0,
                0,
                0.7071067094802856
            ]
        }
    ],
    "scene" : 0,
    "scenes" : [
        {
            "name" : "Scene",
            "nodes" : [
                0
            ]
        }
    ]
}
