{
    "accessors" : [
        {
            "bufferView" : 0,
            "componentType" : 5126,
            "count" : 3606,
            "max" : [
                8.187694549560547,
                8.22683334350586,
                0
            ],
            "min" : [
                -8.187694549560547,
                -8.148548126220703,
                -38.98889923095703
            ],
            "type" : "VEC3"
        },
        {
            "bufferView" : 1,
            "componentType" : 5126,
            "count" : 3606,
            "type" : "VEC3"
        },
        {
            "bufferView" : 2,
            "componentType" : 5126,
            "count" : 3606,
            "type" : "VEC2"
        },
        {
            "bufferView" : 3,
            "componentType" : 5123,
            "count" : 3732,
            "type" : "SCALAR"
        }
    ],
    "asset" : {
        "generator" : "Khronos Blender glTF 2.0 I/O",
        "version" : "2.0"
    },
    "bufferViews" : [
        {
            "buffer" : 0,
            "byteLength" : 43272,
            "byteOffset" : 0
        },
        {
            "buffer" : 0,
            "byteLength" : 43272,
            "byteOffset" : 43272
        },
        {
            "buffer" : 0,
            "byteLength" : 28848,
            "byteOffset" : 86544
        },
        {
            "buffer" : 0,
            "byteLength" : 7464,
            "byteOffset" : 115392
        }
    ],
    "buffers" : [
        {
            "byteLength" : 122856,
            "uri" : "king.bin"
        }
    ],
    "extensions" : {},
    "materials" : [
        {
            "name" : "king_1SG",
            "pbrMetallicRoughness" : {
                "baseColorFactor": [ 0.815, 0.584, 0.31, 1.0 ],
                "metallicFactor": 0.01,
                "roughnessFactor": 0.25
			}
        }
    ],
    "meshes" : [
        {
            "name" : "king",
            "primitives" : [
                {
                    "attributes" : {
                        "NORMAL" : 1,
                        "POSITION" : 0,
                        "TEXCOORD_0" : 2
                    },
                    "indices" : 3,
                    "material" : 0
                }
            ]
        }
    ],
    "nodes" : [
        {
            "mesh" : 0,
            "name" : "king",
            "rotation" : [
                0.7071068286895752,
                0,
                0,
                0.7071067094802856
            ]
        }
    ],
    "scene" : 0,
    "scenes" : [
        {
            "name" : "Scene",
            "nodes" : [
                0
            ]
        }
    ]
}
